{
	"asset":{
		"generator":"Khronos glTF Blender I/O v3.6.28",
		"version":"2.0"
	},
	"extensionsUsed":[
		"KHR_materials_specular",
		"KHR_materials_ior"
	],
	"scene":0,
	"scenes":[
		{
			"name":"Scene",
			"nodes":[
				0
			]
		}
	],
	"nodes":[
		{
			"mesh":0,
			"name":"21335_Cactus_v1",
			"rotation":[
				0.03467731550335884,
				0,
				0,
				0.9993985891342163
			],
			"translation":[
				-0.21243827044963837,
				0,
				0
			]
		}
	],
	"materials":[
		{
			"doubleSided":true,
			"extensions":{
				"KHR_materials_specular":{
					"specularColorFactor":[
						0,
						0,
						0
					]
				},
				"KHR_materials_ior":{
					"ior":1.4500000476837158
				}
			},
			"name":"08___Default",
			"pbrMetallicRoughness":{
				"baseColorFactor":[
					0.015741875395178795,
					0.8000000715255737,
					0.028937388211488724,
					1
				],
				"metallicFactor":0
			}
		},
		{
			"doubleSided":true,
			"extensions":{
				"KHR_materials_specular":{
					"specularColorFactor":[
						0,
						0,
						0
					]
				},
				"KHR_materials_ior":{
					"ior":1.4500000476837158
				}
			},
			"name":"07___Default",
			"pbrMetallicRoughness":{
				"baseColorFactor":[
					0.800000011920929,
					0.800000011920929,
					0.800000011920929,
					1
				],
				"metallicFactor":0
			}
		}
	],
	"meshes":[
		{
			"name":"21335_Cactus_v1",
			"primitives":[
				{
					"attributes":{
						"POSITION":0,
						"NORMAL":1
					},
					"indices":2,
					"material":0
				},
				{
					"attributes":{
						"POSITION":3,
						"NORMAL":4
					},
					"indices":5,
					"material":1
				}
			]
		}
	],
	"accessors":[
		{
			"bufferView":0,
			"componentType":5126,
			"count":11746,
			"max":[
				2.1196999549865723,
				5.305699825286865,
				1.0777000188827515
			],
			"min":[
				-2.1196999549865723,
				0.012000000104308128,
				-0.6503999829292297
			],
			"type":"VEC3"
		},
		{
			"bufferView":1,
			"componentType":5126,
			"count":11746,
			"type":"VEC3"
		},
		{
			"bufferView":2,
			"componentType":5123,
			"count":70464,
			"type":"SCALAR"
		},
		{
			"bufferView":3,
			"componentType":5126,
			"count":1698,
			"max":[
				0.6116999983787537,
				3.8873000144958496,
				-0.5478000044822693
			],
			"min":[
				0.03680000081658363,
				0.8873000144958496,
				-1.0777000188827515
			],
			"type":"VEC3"
		},
		{
			"bufferView":4,
			"componentType":5126,
			"count":1698,
			"type":"VEC3"
		},
		{
			"bufferView":5,
			"componentType":5123,
			"count":10176,
			"type":"SCALAR"
		}
	],
	"bufferViews":[
		{
			"buffer":0,
			"byteLength":140952,
			"byteOffset":0,
			"target":34962
		},
		{
			"buffer":0,
			"byteLength":140952,
			"byteOffset":140952,
			"target":34962
		},
		{
			"buffer":0,
			"byteLength":140928,
			"byteOffset":281904,
			"target":34963
		},
		{
			"buffer":0,
			"byteLength":20376,
			"byteOffset":422832,
			"target":34962
		},
		{
			"buffer":0,
			"byteLength":20376,
			"byteOffset":443208,
			"target":34962
		},
		{
			"buffer":0,
			"byteLength":20352,
			"byteOffset":463584,
			"target":34963
		}
	],
	"buffers":[
		{
			"byteLength":483936,
			"uri":"cactus.neww.bin"
		}
	]
}
