{
	"asset":{
		"generator":"Khronos glTF Blender I/O v3.6.28",
		"version":"2.0"
	},
	"scene":0,
	"scenes":[
		{
			"name":"Scene",
			"nodes":[
				0
			]
		}
	],
	"nodes":[
		{
			"mesh":0,
			"name":"Grass_20",
			"rotation":[
				0.7071068286895752,
				0,
				0,
				0.7071068286895752
			],
			"scale":[
				0.009999999776482582,
				0.009999999776482582,
				0.009999999776482582
			]
		}
	],
	"meshes":[
		{
			"name":"Mesh",
			"primitives":[
				{
					"attributes":{
						"POSITION":0,
						"NORMAL":1,
						"TEXCOORD_0":2
					},
					"indices":3
				}
			]
		}
	],
	"accessors":[
		{
			"bufferView":0,
			"componentType":5126,
			"count":934,
			"max":[
				13.596339225769043,
				12.612130165100098,
				0
			],
			"min":[
				-13.596339225769043,
				-12.612130165100098,
				-20.279150009155273
			],
			"type":"VEC3"
		},
		{
			"bufferView":1,
			"componentType":5126,
			"count":934,
			"type":"VEC3"
		},
		{
			"bufferView":2,
			"componentType":5126,
			"count":934,
			"type":"VEC2"
		},
		{
			"bufferView":3,
			"componentType":5123,
			"count":3336,
			"type":"SCALAR"
		}
	],
	"bufferViews":[
		{
			"buffer":0,
			"byteLength":11208,
			"byteOffset":0,
			"target":34962
		},
		{
			"buffer":0,
			"byteLength":11208,
			"byteOffset":11208,
			"target":34962
		},
		{
			"buffer":0,
			"byteLength":7472,
			"byteOffset":22416,
			"target":34962
		},
		{
			"buffer":0,
			"byteLength":6672,
			"byteOffset":29888,
			"target":34963
		}
	],
	"buffers":[
		{
			"byteLength":36560,
			"uri":"data:application/octet-stream;base64,"
		}
	]
}
