{
	"asset":{
		"generator":"Khronos glTF Blender I/O v3.6.28",
		"version":"2.0"
	},
	"scene":0,
	"scenes":[
		{
			"name":"Scene",
			"nodes":[
				0
			]
		}
	],
	"nodes":[
		{
			"mesh":0,
			"name":"Grass_20",
			"rotation":[
				0.7071068286895752,
				0,
				0,
				0.7071068286895752
			],
			"scale":[
				0.009999999776482582,
				0.009999999776482582,
				0.009999999776482582
			]
		}
	],
	"meshes":[
		{
			"name":"Mesh",
			"primitives":[
				{
					"attributes":{
						"POSITION":0,
						"NORMAL":1,
						"TEXCOORD_0":2
					},
					"indices":3
				}
			]
		}
	],
	"accessors":[
		{
			"bufferView":0,
			"componentType":5126,
			"count":2944,
			"max":[
				13.26789665222168,
				12.198491096496582,
				0
			],
			"min":[
				-12.974446296691895,
				-12.206338882446289,
				-19.920753479003906
			],
			"type":"VEC3"
		},
		{
			"bufferView":1,
			"componentType":5126,
			"count":2944,
			"type":"VEC3"
		},
		{
			"bufferView":2,
			"componentType":5126,
			"count":2944,
			"type":"VEC2"
		},
		{
			"bufferView":3,
			"componentType":5123,
			"count":13344,
			"type":"SCALAR"
		}
	],
	"bufferViews":[
		{
			"buffer":0,
			"byteLength":35328,
			"byteOffset":0,
			"target":34962
		},
		{
			"buffer":0,
			"byteLength":35328,
			"byteOffset":35328,
			"target":34962
		},
		{
			"buffer":0,
			"byteLength":23552,
			"byteOffset":70656,
			"target":34962
		},
		{
			"buffer":0,
			"byteLength":26688,
			"byteOffset":94208,
			"target":34963
		}
	],
	"buffers":[
		{
			"byteLength":120896,
			"uri":"grasssss.bin"
		}
	]
}
