{
	"asset":{
		"generator":"Khronos glTF Blender I/O v3.6.28",
		"version":"2.0"
	},
	"extensionsUsed":[
		"KHR_materials_specular",
		"KHR_materials_ior"
	],
	"scene":0,
	"scenes":[
		{
			"name":"Scene",
			"nodes":[
				0
			]
		}
	],
	"nodes":[
		{
			"mesh":0,
			"name":"Object_TexMap_0",
			"rotation":[
				0.7071068286895752,
				0,
				0,
				0.7071068286895752
			],
			"scale":[
				1.6971107721328735,
				1.6971107721328735,
				1.7354166507720947
			],
			"translation":[
				0,
				2.437228202819824,
				0.0002922019630204886
			]
		}
	],
	"materials":[
		{
			"doubleSided":true,
			"extensions":{
				"KHR_materials_specular":{
					"specularColorFactor":[
						2.371357614441398,
						2.371357614441398,
						2.371357614441398
					]
				},
				"KHR_materials_ior":{
					"ior":1.4500000476837158
				}
			},
			"name":"TexMap",
			"pbrMetallicRoughness":{
				"baseColorTexture":{
					"index":0
				},
				"roughnessFactor":0.6861662864685059
			}
		}
	],
	"meshes":[
		{
			"name":"Mesh",
			"primitives":[
				{
					"attributes":{
						"POSITION":0,
						"NORMAL":1,
						"TEXCOORD_0":2
					},
					"indices":3,
					"material":0
				}
			]
		}
	],
	"textures":[
		{
			"sampler":0,
			"source":0
		}
	],
	"images":[
		{
			"mimeType":"image/jpeg",
			"name":"texture",
			"uri":"texture.jpg"
		}
	],
	"accessors":[
		{
			"bufferView":0,
			"componentType":5126,
			"count":5089,
			"max":[
				0.5390980243682861,
				1.25,
				1.1697750091552734
			],
			"min":[
				-0.5390980243682861,
				-1.25,
				-1.1697750091552734
			],
			"type":"VEC3"
		},
		{
			"bufferView":1,
			"componentType":5126,
			"count":5089,
			"type":"VEC3"
		},
		{
			"bufferView":2,
			"componentType":5126,
			"count":5089,
			"type":"VEC2"
		},
		{
			"bufferView":3,
			"componentType":5123,
			"count":24198,
			"type":"SCALAR"
		}
	],
	"bufferViews":[
		{
			"buffer":0,
			"byteLength":61068,
			"byteOffset":0,
			"target":34962
		},
		{
			"buffer":0,
			"byteLength":61068,
			"byteOffset":61068,
			"target":34962
		},
		{
			"buffer":0,
			"byteLength":40712,
			"byteOffset":122136,
			"target":34962
		},
		{
			"buffer":0,
			"byteLength":48396,
			"byteOffset":162848,
			"target":34963
		}
	],
	"samplers":[
		{
			"magFilter":9729,
			"minFilter":9987
		}
	],
	"buffers":[
		{
			"byteLength":211244,
			"uri":"mariouu.bin"
		}
	]
}
